<?xml version="1.0" encoding="UTF-8" standalone="no"?>
<!DOCTYPE svg PUBLIC "-//W3C//DTD SVG 1.1//EN" "http://www.w3.org/Graphics/SVG/1.1/DTD/svg11.dtd">
<svg width="100%" height="100%" viewBox="0 0 1242 754" version="1.1" xmlns="http://www.w3.org/2000/svg" xmlns:xlink="http://www.w3.org/1999/xlink" xml:space="preserve" xmlns:serif="http://www.serif.com/" style="fill-rule:evenodd;clip-rule:evenodd;stroke-linejoin:round;stroke-miterlimit:2;">
    <g id="ABT">
        <g transform="matrix(1,0,-0.317312,1,850.296,-7.15951)">
            <path d="M31.614,7.16L379.001,7.16L379.001,98.484L262.449,98.484L262.449,377L148.166,377L148.166,98.484L31.614,98.484L31.614,7.16Z" style="fill:rgb(251,53,4);fill-rule:nonzero;"/>
        </g>
        <g transform="matrix(1,0,-0.331807,1,390.59,369.84)">
            <path d="M38.094,-369.84L252.026,-369.84C287.682,-369.84 315.054,-361.011 334.143,-343.351C353.232,-325.692 362.777,-303.828 362.777,-277.759C362.777,-255.895 355.965,-237.142 342.342,-221.501C333.26,-211.073 319.973,-202.832 302.482,-196.777C329.055,-190.386 348.607,-179.412 361.137,-163.855C373.667,-148.298 379.932,-128.746 379.932,-105.2C379.932,-86.027 375.475,-68.788 366.561,-53.483C357.647,-38.178 345.454,-26.069 329.98,-17.155C320.394,-11.605 305.93,-7.568 286.589,-5.046C260.856,-1.682 243.785,0 235.376,0L38.094,0L38.094,-369.84ZM153.385,-224.78L203.084,-224.78C220.912,-224.78 233.316,-227.85 240.295,-233.988C247.275,-240.127 250.765,-248.999 250.765,-260.604C250.765,-271.368 247.275,-279.777 240.295,-285.832C233.316,-291.886 221.164,-294.914 203.841,-294.914L153.385,-294.914L153.385,-224.78ZM153.385,-79.468L211.662,-79.468C231.34,-79.468 245.215,-82.958 253.288,-89.937C261.361,-96.917 265.397,-106.293 265.397,-118.066C265.397,-128.998 261.403,-137.786 253.414,-144.43C245.425,-151.073 231.424,-154.395 211.41,-154.395L153.385,-154.395L153.385,-79.468Z" style="fill:rgb(251,53,4);fill-rule:nonzero;"/>
        </g>
        <g transform="matrix(1,0,-0.343151,1,13.9358,369.84)">
            <path d="M265.397,-61.051L135.221,-61.051L117.31,0L0.505,0L139.51,-369.84L264.136,-369.84L403.141,0L283.561,0L265.397,-61.051ZM241.431,-141.024L200.562,-273.975L159.945,-141.024L241.431,-141.024Z" style="fill:rgb(251,53,4);fill-rule:nonzero;"/>
        </g>
    </g>
    <g id="前波" transform="matrix(1,0,0,1,-163.248,-59.3355)">
        <g transform="matrix(1,0,0,1.49337,163.248,-317.139)">
            <rect x="0" y="642.807" width="1242" height="74.458" style="fill:rgb(138,138,138);"/>
        </g>
        <path d="M621,743.176L621,642.807C683.795,643.023 709.222,564.322 713.785,503.862C714.581,493.312 727.38,467.626 742.5,457.571C759.425,446.317 780.437,443.607 815.334,436.335C840.961,491.037 860.575,549.097 873.327,609.666C876.81,626.208 889.164,643.288 905.845,642.807C933.477,642.01 888.743,714.999 889.849,743.176L621,743.176Z" style="fill:rgb(138,138,138);"/>
        <g transform="matrix(1,0,0,1,-451.465,0)">
            <path d="M621,743.176L621,642.807C683.795,643.023 709.222,564.322 713.785,503.862C714.581,493.312 727.38,467.626 742.5,457.571C759.425,446.317 780.437,443.607 815.334,436.335C840.961,491.037 860.575,549.097 873.327,609.666C876.81,626.208 889.164,643.288 905.845,642.807C933.477,642.01 888.743,714.999 889.849,743.176L621,743.176Z" style="fill:rgb(138,138,138);"/>
        </g>
        <g transform="matrix(1,0,0,1,449.616,0)">
            <path d="M621,743.176L621,642.807C683.795,643.023 709.222,564.322 713.785,503.862C714.581,493.312 727.38,467.626 742.5,457.571C759.425,446.317 780.437,443.607 815.334,436.335C840.961,491.037 860.575,549.097 873.327,609.666C876.81,626.208 889.164,643.288 905.845,642.807C933.477,642.01 888.743,714.999 889.849,743.176L621,743.176Z" style="fill:rgb(138,138,138);"/>
        </g>
    </g>
    <g id="前波1" serif:id="前波">
        <g transform="matrix(1,0,0,1.49337,0,-317.139)">
            <rect x="0" y="642.807" width="1242" height="74.458" style="fill:rgb(10,60,179);"/>
        </g>
        <path d="M621,743.176L621,642.807C683.795,643.023 709.222,564.322 713.785,503.862C714.581,493.312 727.38,467.626 742.5,457.571C759.425,446.317 780.437,443.607 815.334,436.335C840.961,491.037 860.575,549.097 873.327,609.666C876.81,626.208 889.164,643.288 905.845,642.807C933.477,642.01 888.743,714.999 889.849,743.176L621,743.176Z" style="fill:rgb(10,60,179);"/>
        <g transform="matrix(1,0,0,1,-451.465,0)">
            <path d="M621,743.176L621,642.807C683.795,643.023 709.222,564.322 713.785,503.862C714.581,493.312 727.38,467.626 742.5,457.571C759.425,446.317 780.437,443.607 815.334,436.335C840.961,491.037 860.575,549.097 873.327,609.666C876.81,626.208 889.164,643.288 905.845,642.807C933.477,642.01 888.743,714.999 889.849,743.176L621,743.176Z" style="fill:rgb(10,60,179);"/>
        </g>
        <path d="M1242,440.982L1242,743.176L1070.62,743.176L1070.62,642.807C1133.41,643.023 1158.84,564.322 1163.4,503.862C1164.2,493.312 1177,467.626 1192.12,457.571C1204.96,449.029 1220.16,445.409 1242,440.982Z" style="fill:rgb(10,60,179);"/>
    </g>
</svg>
